<svg xmlns="http://www.w3.org/2000/svg" xmlns:xlink="http://www.w3.org/1999/xlink" viewBox="0 0 194.53 170.58"><defs><style>.a{fill:url(#a);}.b{fill:#fafafa;}</style><linearGradient id="a" x1="0.25" y1="85.54" x2="194.78" y2="85.54" gradientUnits="userSpaceOnUse"><stop offset="0" stop-color="#0481a7"/><stop offset="1" stop-color="#00afb9"/></linearGradient></defs><path class="a" d="M193.08,80a10.62,10.62,0,0,1,.1,11.37q-21.3,36.72-42.76,73.35a11.69,11.69,0,0,1-10.76,6.07c-14.16-.06-28.32,0-42.47,0v-.45c-13.33,0-26.65-.17-40,.07-7.08.13-11.66-2.5-15.22-8.85C29.13,138.65,15.83,116,2.57,93.26c-2.88-4.92-3.22-9.37-.23-14.47C16.22,55.11,29.91,31.32,43.62,7.54A13.61,13.61,0,0,1,56.31.25q41,.06,81.95,0c5.89,0,10.08,2.58,13,7.67Q172.1,44,193.08,80ZM163.22,90.17a8.2,8.2,0,0,0,0-8.91Q148.71,56.5,134.38,31.65a8.82,8.82,0,0,0-8.56-4.83c-9.33.13-18.66,0-28,0-9.67,0-19.33.07-29,0-3.67,0-6.37,1.12-8.26,4.42C51,48,41.29,64.67,31.64,81.39a8.8,8.8,0,0,0,0,9.44C41.32,107.55,50.76,124.38,60.6,141c1.21,2,4.36,4.09,6.65,4.13q29.7.55,59.4.15c2.51,0,6-1.91,7.29-4C143.94,124.37,153.49,107.22,163.22,90.17Z" transform="translate(-0.25 -0.25)"/><path class="b" d="M120.4,46.39l-4.93-4.92a3.11,3.11,0,0,0-4.41,0L75.44,77.09,68.3,84.22a3.14,3.14,0,0,0,0,4.42l42.76,42.75a3.11,3.11,0,0,0,4.41,0l4.93-4.92a3.13,3.13,0,0,0,0-4.42L87,88.64a3.13,3.13,0,0,1,0-4.42L120.4,50.81A3.13,3.13,0,0,0,120.4,46.39Z" transform="translate(-0.25 -0.25)"/><path class="b" d="M74.8,45.64,79.46,41a3.31,3.31,0,0,1,4.68,0l35.49,35.49,7,7a3.31,3.31,0,0,1,0,4.68L84.14,130.64a3.31,3.31,0,0,1-4.68,0L74.8,126a3.31,3.31,0,0,1,0-4.68L108,88.15a3.3,3.3,0,0,0,0-4.68L74.8,50.32A3.31,3.31,0,0,1,74.8,45.64Z" transform="translate(-0.25 -0.25)"/></svg>